<?xml version="1.0" encoding="UTF-8" standalone="no"?>
<svg
   xmlns:dc="http://purl.org/dc/elements/1.1/"
   xmlns:cc="http://creativecommons.org/ns#"
   xmlns:rdf="http://www.w3.org/1999/02/22-rdf-syntax-ns#"
   xmlns:svg="http://www.w3.org/2000/svg"
   xmlns="http://www.w3.org/2000/svg"
   xmlns:sodipodi="http://sodipodi.sourceforge.net/DTD/sodipodi-0.dtd"
   xmlns:inkscape="http://www.inkscape.org/namespaces/inkscape"
   version="1.1"
   id="svg2"
   viewBox="0 0 161.54999 32.4"
   height="9.1440001mm"
   width="45.592999mm"
   inkscape:version="0.91 r13725"
   sodipodi:docname="logo_caphtml.svg">
  <sodipodi:namedview
     pagecolor="#ffffff"
     bordercolor="#666666"
     borderopacity="1"
     objecttolerance="10"
     gridtolerance="10"
     guidetolerance="10"
     inkscape:pageopacity="0"
     inkscape:pageshadow="2"
     inkscape:window-width="1920"
     inkscape:window-height="1027"
     id="namedview4502"
     showgrid="false"
     fit-margin-top="0"
     fit-margin-left="0"
     fit-margin-right="0"
     fit-margin-bottom="0"
     inkscape:zoom="4.8704481"
     inkscape:cx="78.316948"
     inkscape:cy="-26.449714"
     inkscape:window-x="1920"
     inkscape:window-y="0"
     inkscape:window-maximized="1"
     inkscape:current-layer="text4504" />
  <defs
     id="defs4" />
  <metadata
     id="metadata7">
    <rdf:RDF>
      <cc:Work
         rdf:about="">
        <dc:format>image/svg+xml</dc:format>
        <dc:type
           rdf:resource="http://purl.org/dc/dcmitype/StillImage" />
        <dc:title></dc:title>
      </cc:Work>
    </rdf:RDF>
  </metadata>
  <g
     transform="translate(-40.067474,-418.14619)"
     id="layer1">
    <g
       style="font-style:normal;font-variant:normal;font-weight:normal;font-stretch:normal;font-size:25px;line-height:0%;font-family:'Ubuntu Mono';-inkscape-font-specification:'Ubuntu Mono';letter-spacing:0px;word-spacing:0px;fill:#000000;fill-opacity:1;stroke:none;stroke-width:1px;stroke-linecap:butt;stroke-linejoin:miter;stroke-opacity:1"
       id="text4504"
       transform="translate(135.71647,-43.527823)">
      <path
         d="m -95.648996,479.22401 q 0,-2.3625 0.75,-4.0875 0.75,-1.725 2.0625,-2.85 1.3125,-1.125 3.0375,-1.65 1.7625,-0.5625 3.75,-0.5625 1.275,0 2.5125,0.1875 1.275,0.15 2.7,0.6 l -0.7125,2.6625 q -1.2375,-0.45 -2.2875,-0.5625 -1.0125,-0.15 -2.0625,-0.15 -1.35,0 -2.55,0.375 -1.2,0.3375 -2.1,1.125 -0.8625,0.75 -1.3875,1.9875 -0.525,1.2 -0.525,2.925 0,1.65 0.4875,2.85 0.4875,1.1625 1.35,1.95 0.9,0.75 2.1375,1.125 1.2375,0.375 2.7375,0.375 1.2,0 2.2875,-0.1125 1.125,-0.15 2.4375,-0.6 l 0.45,2.5875 q -1.3125,0.4875 -2.6625,0.675 -1.35,0.225 -2.925,0.225 -2.1,0 -3.8625,-0.5625 -1.725,-0.6 -3,-1.725 -1.2375,-1.125 -1.95,-2.8125 -0.675,-1.725 -0.675,-3.975 z"
         style="font-size:37.5px;text-align:start;text-anchor:start;fill:#40495f;fill-opacity:0.94117647"
         id="path4546"
         inkscape:connector-curvature="0" />
      <path
         d="m -69.173996,485.67401 q 1.1625,0 2.0625,-0.075 0.9375,-0.075 1.5375,-0.1875 l 0,-5.175 q -0.6,-0.1875 -1.4625,-0.3 -0.825,-0.1125 -1.7625,-0.1125 -0.8625,0 -1.6875,0.15 -0.825,0.1125 -1.4625,0.45 -0.6375,0.3375 -1.05,0.9 -0.4125,0.525 -0.4125,1.35 0,1.6875 1.125,2.3625 1.1625,0.6375 3.1125,0.6375 z m -0.3,-15.6 q 1.95,0 3.2625,0.4875 1.35,0.4875 2.175,1.35 0.825,0.8625 1.1625,2.1 0.3375,1.2375 0.3375,2.7 l 0,10.875 q -1.0875,0.1875 -2.8875,0.45 -1.7625,0.2625 -3.6375,0.2625 -1.425,0 -2.775,-0.2625 -1.35,-0.225 -2.4,-0.825 -1.05,-0.6375 -1.6875,-1.725 -0.6375,-1.0875 -0.6375,-2.775 0,-1.5 0.6375,-2.5125 0.675,-1.05 1.6875,-1.6875 1.05,-0.6375 2.3625,-0.9 1.35,-0.3 2.7,-0.3 1.8375,0 3.6,0.4125 l 0,-0.8625 q 0,-0.7875 -0.1875,-1.5 -0.15,-0.75 -0.6375,-1.35 -0.45,-0.6 -1.275,-0.9375 -0.7875,-0.375 -2.0625,-0.375 -1.6125,0 -2.8125,0.225 -1.2,0.225 -1.8375,0.45 l -0.375,-2.55 q 0.6375,-0.3 2.1,-0.525 1.5,-0.225 3.1875,-0.225 z"
         style="font-size:37.5px;text-align:start;text-anchor:start;fill:#40495f;fill-opacity:0.94117647"
         id="path4548"
         inkscape:connector-curvature="0" />
      <path
         d="m -45.923996,479.22401 q 0,-3.0375 -1.425,-4.6875 -1.425,-1.6875 -3.7125,-1.6875 -1.275,0 -2.025,0.1125 -0.7125,0.1125 -1.125,0.2625 l 0,10.9875 q 0.525,0.4875 1.5375,0.9 1.0125,0.4125 2.1,0.4125 1.2375,0 2.1,-0.4875 0.9,-0.4875 1.4625,-1.3125 0.5625,-0.8625 0.825,-1.9875 0.2625,-1.1625 0.2625,-2.5125 z m 3.1875,0 q 0,1.9875 -0.525,3.675 -0.4875,1.65 -1.4625,2.85 -0.9375,1.2 -2.325,1.875 -1.3875,0.675 -3.15,0.675 -1.3875,0 -2.4375,-0.3375 -1.05,-0.3375 -1.575,-0.75 l 0,6.8625 -3.1125,0 0,-23.0625 q 1.0125,-0.3 2.5875,-0.6 1.6125,-0.3 3.675,-0.3 1.875,0 3.4125,0.6375 1.5375,0.6375 2.625,1.8375 1.0875,1.1625 1.6875,2.85 0.6,1.6875 0.6,3.7875 z"
         style="font-size:37.5px;text-align:start;text-anchor:start;fill:#40495f;fill-opacity:0.94117647"
         id="path4550"
         inkscape:connector-curvature="0" />
      <path
         d="m -35.873996,461.67401 8.9625,0 0,2.4375 -6.0375,0 0,27.525 6.0375,0 0,2.4375 -8.9625,0 0,-32.4 z"
         style="font-size:37.5px;text-align:start;text-anchor:start;fill:#40495f;fill-opacity:0.94117647"
         id="path4552"
         inkscape:connector-curvature="0" />
      <path
         d="m -19.823996,487.88651 0,-25.4625 3.1125,-0.525 0,8.85 q 0.75,-0.3 1.6875,-0.45 0.9375,-0.1875 1.8375,-0.1875 1.9875,0 3.3,0.6 1.35,0.5625 2.1375,1.6125 0.7875,1.05 1.125,2.5125 0.3375,1.4625 0.3375,3.225 l 0,9.825 -3.075,0 0,-9.15 q 0,-3.225 -0.9,-4.5375 -0.9,-1.35 -3.225,-1.35 -0.975,0 -1.9125,0.225 -0.9,0.1875 -1.3125,0.375 l 0,14.4375 -3.1125,0 z"
         style="font-size:37.5px;text-align:start;text-anchor:start;fill:#adaeae;fill-opacity:1"
         id="path4554"
         inkscape:connector-curvature="0" />
      <path
         d="m 5.376004,470.48651 7.35,0 0,2.5875 -7.35,0 0,8.1 q 0,1.3125 0.1875,2.1375 0.1875,0.825 0.6,1.35 0.45,0.4875 1.125,0.675 0.675,0.1875 1.65,0.1875 1.35,0 2.175,-0.225 0.825,-0.225 1.575,-0.6 l 0.45,2.625 q -0.525,0.225 -1.6875,0.6 -1.125,0.375 -2.8125,0.375 -1.95,0 -3.1875,-0.45 -1.2375,-0.45 -1.95,-1.35 -0.675,-0.9 -0.9375,-2.2125 -0.2625,-1.35 -0.2625,-3.1125 l 0,-8.1 -3.675,0 0,-2.5875 3.675,0 0,-4.875 3.075,-0.525 0,5.4 z"
         style="font-size:37.5px;text-align:start;text-anchor:start;fill:#adaeae;fill-opacity:1"
         id="path4556"
         inkscape:connector-curvature="0" />
      <path
         d="m 16.551004,470.97401 q 2.25,-0.8625 4.2375,-0.8625 1.0875,0 2.025,0.3375 0.975,0.3 1.65,0.975 1.6125,-1.3125 3.45,-1.3125 0.9,0 1.6875,0.3375 0.825,0.3375 1.425,1.0125 0.6375,0.675 1.0125,1.6875 0.375,1.0125 0.375,2.3625 l 0,12.375 -2.8125,0 0,-12.45 q 0,-1.35 -0.6,-2.0625 -0.6,-0.7125 -1.5,-0.7125 -0.45,0 -0.9375,0.225 -0.4875,0.225 -0.9,0.7125 0.225,0.8625 0.225,1.9125 l 0,5.6625 -2.8125,0 0,-5.7 q 0,-1.3125 -0.4125,-2.0625 -0.4125,-0.75 -1.6125,-0.75 -0.75,0 -1.6875,0.3375 l 0,14.8875 -2.8125,0 0,-16.9125 z"
         style="font-size:37.5px;text-align:start;text-anchor:start;fill:#adaeae;fill-opacity:1"
         id="path4558"
         inkscape:connector-curvature="0" />
      <path
         d="m 46.438504,488.29901 q -1.65,0 -2.7375,-0.45 -1.0875,-0.45 -1.725,-1.35 -0.6375,-0.9 -0.9,-2.2125 -0.2625,-1.35 -0.2625,-3.1125 l 0,-16.4625 -5.025,0 0,-2.625 8.1,0 0,19.0875 q 0,1.3125 0.15,2.1375 0.1875,0.825 0.525,1.35 0.375,0.4875 0.9,0.675 0.525,0.1875 1.2375,0.1875 1.0875,0 2.025,-0.2625 0.9375,-0.2625 1.4625,-0.5625 l 0.45,2.625 q -0.225,0.1125 -0.6375,0.3 -0.4125,0.15 -0.975,0.3 -0.5625,0.15 -1.2375,0.2625 -0.6375,0.1125 -1.35,0.1125 z"
         style="font-size:37.5px;text-align:start;text-anchor:start;fill:#adaeae;fill-opacity:1"
         id="path4560"
         inkscape:connector-curvature="0" />
      <path
         d="m 65.901004,494.07401 -8.9625,0 0,-2.4375 6.0375,0 0,-27.525 -6.0375,0 0,-2.4375 8.9625,0 0,32.4 z"
         style="font-size:37.5px;text-align:start;text-anchor:start;fill:#40495f;fill-opacity:0.94117647"
         id="path4562"
         inkscape:connector-curvature="0" />
    </g>
  </g>
</svg>
