<?xml version="1.0" encoding="UTF-8" standalone="no"?>
<svg
   xmlns:dc="http://purl.org/dc/elements/1.1/"
   xmlns:cc="http://creativecommons.org/ns#"
   xmlns:rdf="http://www.w3.org/1999/02/22-rdf-syntax-ns#"
   xmlns:svg="http://www.w3.org/2000/svg"
   xmlns="http://www.w3.org/2000/svg"
   version="1.1"
   id="svg2"
   viewBox="0 0 142.8 32.4"
   height="9.1440001mm"
   width="40.301334mm">
  <defs
     id="defs4" />
  <metadata
     id="metadata7">
    <rdf:RDF>
      <cc:Work
         rdf:about="">
        <dc:format>image/svg+xml</dc:format>
        <dc:type
           rdf:resource="http://purl.org/dc/dcmitype/StillImage" />
        <dc:title></dc:title>
      </cc:Work>
    </rdf:RDF>
  </metadata>
  <g
     transform="translate(-39.535777,-417.95101)"
     id="layer1">
    <g
       id="text4136-98"
       style="font-style:normal;font-variant:normal;font-weight:normal;font-stretch:normal;font-size:37.5px;line-height:125%;font-family:'Cherry Cream Soda';-inkscape-font-specification:'Cherry Cream Soda';letter-spacing:0px;word-spacing:0px;fill:#000000;fill-opacity:1;stroke:none;stroke-width:1px;stroke-linecap:butt;stroke-linejoin:miter;stroke-opacity:1">
      <path
         id="path4334"
         style="font-style:normal;font-variant:normal;font-weight:normal;font-stretch:normal;font-family:'Ubuntu Mono';-inkscape-font-specification:'Ubuntu Mono';fill:#404a5f;fill-opacity:0.94117647"
         d="m 39.535777,435.50101 q 0,-2.3625 0.75,-4.0875 0.75,-1.725 2.0625,-2.85 1.3125,-1.125 3.0375,-1.65 1.7625,-0.5625 3.75,-0.5625 1.275,0 2.5125,0.1875 1.275,0.15 2.7,0.6 l -0.7125,2.6625 q -1.2375,-0.45 -2.2875,-0.5625 -1.0125,-0.15 -2.0625,-0.15 -1.35,0 -2.55,0.375 -1.2,0.3375 -2.1,1.125 -0.8625,0.75 -1.3875,1.9875 -0.525,1.2 -0.525,2.925 0,1.65 0.4875,2.85 0.4875,1.1625 1.35,1.95 0.9,0.75 2.1375,1.125 1.2375,0.375 2.7375,0.375 1.2,0 2.2875,-0.1125 1.125,-0.15 2.4375,-0.6 l 0.45,2.5875 q -1.3125,0.4875 -2.6625,0.675 -1.35,0.225 -2.925,0.225 -2.1,0 -3.8625,-0.5625 -1.725,-0.6 -3,-1.725 -1.2375,-1.125 -1.95,-2.8125 -0.675,-1.725 -0.675,-3.975 z" />
      <path
         id="path4336"
         style="font-style:normal;font-variant:normal;font-weight:normal;font-stretch:normal;font-family:'Ubuntu Mono';-inkscape-font-specification:'Ubuntu Mono';fill:#404a5f;fill-opacity:0.94117647"
         d="m 66.010777,441.95101 q 1.1625,0 2.0625,-0.075 0.9375,-0.075 1.5375,-0.1875 l 0,-5.175 q -0.6,-0.1875 -1.4625,-0.3 -0.825,-0.1125 -1.7625,-0.1125 -0.8625,0 -1.6875,0.15 -0.825,0.1125 -1.4625,0.45 -0.6375,0.3375 -1.05,0.9 -0.4125,0.525 -0.4125,1.35 0,1.6875 1.125,2.3625 1.1625,0.6375 3.1125,0.6375 z m -0.3,-15.6 q 1.95,0 3.2625,0.4875 1.35,0.4875 2.175,1.35 0.825,0.8625 1.1625,2.1 0.3375,1.2375 0.3375,2.7 l 0,10.875 q -1.0875,0.1875 -2.8875,0.45 -1.7625,0.2625 -3.6375,0.2625 -1.425,0 -2.775,-0.2625 -1.35,-0.225 -2.4,-0.825 -1.05,-0.6375 -1.6875,-1.725 -0.6375,-1.0875 -0.6375,-2.775 0,-1.5 0.6375,-2.5125 0.675,-1.05 1.6875,-1.6875 1.05,-0.6375 2.3625,-0.9 1.35,-0.3 2.7,-0.3 1.8375,0 3.6,0.4125 l 0,-0.8625 q 0,-0.7875 -0.1875,-1.5 -0.15,-0.75 -0.6375,-1.35 -0.45,-0.6 -1.275,-0.9375 -0.7875,-0.375 -2.0625,-0.375 -1.6125,0 -2.8125,0.225 -1.2,0.225 -1.8375,0.45 l -0.375,-2.55 q 0.6375,-0.3 2.1,-0.525 1.5,-0.225 3.1875,-0.225 z" />
      <path
         id="path4338"
         style="font-style:normal;font-variant:normal;font-weight:normal;font-stretch:normal;font-family:'Ubuntu Mono';-inkscape-font-specification:'Ubuntu Mono';fill:#404a5f;fill-opacity:0.94117647"
         d="m 89.260777,435.50101 q 0,-3.0375 -1.425,-4.6875 -1.425,-1.6875 -3.7125,-1.6875 -1.275,0 -2.025,0.1125 -0.7125,0.1125 -1.125,0.2625 l 0,10.9875 q 0.525,0.4875 1.5375,0.9 1.0125,0.4125 2.1,0.4125 1.2375,0 2.1,-0.4875 0.9,-0.4875 1.4625,-1.3125 0.5625,-0.8625 0.825,-1.9875 0.2625,-1.1625 0.2625,-2.5125 z m 3.1875,0 q 0,1.9875 -0.525,3.675 -0.4875,1.65 -1.4625,2.85 -0.9375,1.2 -2.325,1.875 -1.3875,0.675 -3.15,0.675 -1.3875,0 -2.4375,-0.3375 -1.05,-0.3375 -1.575,-0.75 l 0,6.8625 -3.1125,0 0,-23.0625 q 1.0125,-0.3 2.5875,-0.6 1.6125,-0.3 3.675,-0.3 1.875,0 3.4125,0.6375 1.5375,0.6375 2.625,1.8375 1.0875,1.1625 1.6875,2.85 0.6,1.6875 0.6,3.7875 z" />
      <path
         id="path4340"
         style="font-style:normal;font-variant:normal;font-weight:normal;font-stretch:normal;font-family:'Ubuntu Mono';-inkscape-font-specification:'Ubuntu Mono';fill:#404a5f;fill-opacity:0.94117647"
         d="m 99.310777,417.95101 8.962503,0 0,2.4375 -6.0375,0 0,27.525 6.0375,0 0,2.4375 -8.962503,0 0,-32.4 z" />
      <path
         id="path4342"
         style="font-style:normal;font-variant:normal;font-weight:normal;font-stretch:normal;font-family:'Ubuntu Mono';-inkscape-font-specification:'Ubuntu Mono';fill:#adaeae;fill-opacity:1"
         d="m 125.86078,439.81351 q 0,-0.9375 -0.7875,-1.5375 -0.75,-0.6 -1.9125,-1.05 -1.125,-0.45 -2.475,-0.8625 -1.35,-0.45 -2.5125,-1.0875 -1.125,-0.6375 -1.9125,-1.575 -0.75,-0.9375 -0.75,-2.4375 0,-2.1 1.6875,-3.4875 1.725,-1.425 5.3625,-1.425 1.425,0 2.925,0.225 1.5375,0.1875 2.625,0.525 l -0.5625,2.775 q -0.3,-0.15 -0.825,-0.3 -0.525,-0.1875 -1.2,-0.3 -0.675,-0.15 -1.4625,-0.225 -0.75,-0.075 -1.4625,-0.075 -4.05,0 -4.05,2.2125 0,0.7875 0.75,1.35 0.7875,0.525 1.95,0.975 1.1625,0.45 2.5125,0.9375 1.35,0.45 2.5125,1.125 1.1625,0.675 1.9125,1.65 0.7875,0.9375 0.7875,2.4 0,2.3625 -1.8375,3.675 -1.8375,1.275 -5.8125,1.275 -1.8,0 -3.3,-0.3 -1.5,-0.3 -2.85,-0.9 l 0.6,-2.8125 q 1.3125,0.6 2.7375,1.0125 1.4625,0.375 3.1125,0.375 4.2375,0 4.2375,-2.1375 z" />
      <path
         id="path4344"
         style="font-style:normal;font-variant:normal;font-weight:normal;font-stretch:normal;font-family:'Ubuntu Mono';-inkscape-font-specification:'Ubuntu Mono';fill:#adaeae;fill-opacity:1"
         d="m 136.13578,435.50101 q 0,1.35 0.2625,2.5125 0.3,1.125 0.8625,1.9875 0.5625,0.825 1.425,1.3125 0.9,0.4875 2.1375,0.4875 1.0875,0 2.1,-0.4125 1.0125,-0.4125 1.5375,-0.9 l 0,-10.9875 q -0.4125,-0.15 -1.1625,-0.2625 -0.7125,-0.1125 -1.9875,-0.1125 -2.2875,0 -3.75,1.6875 -1.425,1.65 -1.425,4.6875 z m -3.1875,0 q 0,-2.1 0.6,-3.7875 0.6,-1.6875 1.6875,-2.85 1.0875,-1.2 2.625,-1.8375 1.575,-0.6375 3.45,-0.6375 2.025,0 3.5625,0.3375 1.575,0.3 2.6625,0.6 l 0,23.025 -3.1125,0 0,-6.8625 q -0.5625,0.375 -1.6125,0.7125 -1.05,0.375 -2.3625,0.375 -1.7625,0 -3.15,-0.675 -1.3875,-0.675 -2.3625,-1.875 -0.9375,-1.2 -1.4625,-2.85 -0.525,-1.6875 -0.525,-3.675 z" />
      <path
         id="path4346"
         style="font-style:normal;font-variant:normal;font-weight:normal;font-stretch:normal;font-family:'Ubuntu Mono';-inkscape-font-specification:'Ubuntu Mono';fill:#adaeae;fill-opacity:1"
         d="m 162.87328,444.57601 q -1.65,0 -2.7375,-0.45 -1.0875,-0.45 -1.725,-1.35 -0.6375,-0.9 -0.9,-2.2125 -0.2625,-1.35 -0.2625,-3.1125 l 0,-16.4625 -5.025,0 0,-2.625 8.1,0 0,19.0875 q 0,1.3125 0.15,2.1375 0.1875,0.825 0.525,1.35 0.375,0.4875 0.9,0.675 0.525,0.1875 1.2375,0.1875 1.0875,0 2.025,-0.2625 0.9375,-0.2625 1.4625,-0.5625 l 0.45,2.625 q -0.225,0.1125 -0.6375,0.3 -0.4125,0.15 -0.975,0.3 -0.5625,0.15 -1.2375,0.2625 -0.6375,0.1125 -1.35,0.1125 z" />
      <path
         id="path4348"
         style="font-style:normal;font-variant:normal;font-weight:normal;font-stretch:normal;font-family:'Ubuntu Mono';-inkscape-font-specification:'Ubuntu Mono';fill:#404a5f;fill-opacity:0.94117647"
         d="m 182.33578,450.35101 -8.9625,0 0,-2.4375 6.0375,0 0,-27.525 -6.0375,0 0,-2.4375 8.9625,0 0,32.4 z" />
    </g>
  </g>
</svg>
